<svg xmlns="http://www.w3.org/2000/svg" viewBox="0 0 1000 1000">
  <defs><linearGradient id="bg" x2="0" y2="1"><stop stop-color="#fff"/><stop offset="1" stop-color="#eef2f5"/></linearGradient><linearGradient id="case" x2="0" y2="1"><stop stop-color="#444d57"/><stop offset="1" stop-color="#151b22"/></linearGradient><filter id="sh" x="-30%" y="-30%" width="160%" height="170%"><feGaussianBlur stdDeviation="18"/></filter></defs>
  <rect width="1000" height="1000" rx="36" fill="url(#bg)"/><ellipse cx="500" cy="690" rx="300" ry="70" fill="#26313d" opacity=".18" filter="url(#sh)"/>
  <g transform="translate(190 300)"><path d="M35 120 120 55h530l85 65v250l-85 55H120l-85-55z" fill="#c4cbd1"/><path d="M42 115 126 62h514l80 56v240l-80 54H126l-84-55z" fill="url(#case)" stroke="#0e141a" stroke-width="8"/><path d="M73 137h172v178H73z" fill="#101820" stroke="#697580" stroke-width="7"/><path d="M89 153h140v144H89z" fill="#b5c0c9"/><path d="M97 163h124v105H97z" fill="#e8edf0"/><path d="M118 170v90m20-90v90m20-90v90m20-90v90m20-90v90" stroke="#c99d51" stroke-width="8"/><path d="M272 133h180v184H272z" fill="#0c1116" stroke="#7c8994" stroke-width="7"/><path d="M289 150h146v150H289z" fill="#697783"/><path d="M310 170h106v108H310z" fill="#111820"/><circle cx="496" cy="165" r="13" fill="#62c691"/><circle cx="533" cy="165" r="13" fill="#f0c558"/><circle cx="570" cy="165" r="13" fill="#d65a5d"/><path d="M495 206h95m-95 22h75" stroke="#77838e" stroke-width="8" stroke-linecap="round"/><path d="M100 85h90" stroke="#fff" stroke-width="7" opacity=".14"/></g>
</svg>
